<svg width="48" height="48" viewBox="0 0 48 48" fill="none" xmlns="http://www.w3.org/2000/svg">
<path d="M17.232 10.3414C20.136 15.7606 21.6 19.9294 21.6 22.951C21.6 26.131 20.46 28.5742 18.1872 30.1126C17.544 30.547 16.9296 30.3334 16.5 29.6854C16.0704 29.0374 16.3848 28.1974 17.028 27.763C18.4776 26.779 19.2 25.2334 19.2 22.951C19.2 20.9542 18.3048 18.0526 16.5 14.2966L15.828 13.0198L14.88 14.2846C14.2392 14.959 13.512 15.6286 12.6984 16.2958L12.0744 16.7998L10.3704 18.1126C7.82156 20.1478 7.00076 21.4966 7.19996 23.8726C7.37996 26.0374 8.92316 27.4822 11.4576 28.039C12.6096 25.4806 13.3416 22.7158 13.3056 20.4406C13.303 20.0668 13.4489 19.7072 13.7112 19.4408C13.9736 19.1744 14.3309 19.023 14.7048 19.0198C15.4752 19.0078 16.0008 19.6606 16.0128 20.4406C16.056 23.2006 15.3888 26.0758 14.0352 29.0518C12.6096 32.1766 10.1568 34.4734 6.73676 35.9038C6.02156 36.2014 5.20076 35.7982 4.90796 35.1358C4.61996 34.4734 5.04476 33.6478 5.75996 33.3502C7.48229 32.6292 9.01609 31.5224 10.2432 30.115C7.14716 29.1358 5.10716 27.127 4.84316 23.959C4.54556 20.407 5.84156 18.3142 9.07916 15.7294L10.6392 14.527L11.3304 13.9798C12.8832 12.7102 14.0496 11.4622 14.8296 10.2454C14.9603 10.0399 15.1427 9.87225 15.3586 9.75928C15.5744 9.64632 15.8161 9.59198 16.0596 9.60169C16.303 9.61141 16.5396 9.68485 16.7458 9.81466C16.9519 9.94447 17.1204 10.1261 17.2344 10.3414H17.232ZM32.4 11.9998C33.9303 11.9996 35.4029 12.5842 36.5165 13.634C37.63 14.6837 38.3004 16.1193 38.3904 17.647L38.4 17.9998V19.999L41.2008 20.035C41.6895 20.0334 42.1618 20.2115 42.5278 20.5354C42.8937 20.8593 43.1279 21.3065 43.1856 21.7918L43.2 22.0366V26.035C43.2003 26.5189 43.0251 26.9865 42.7069 27.3511C42.3887 27.7156 41.9491 27.9524 41.4696 28.0174L41.2008 28.0366H38.4V29.9998C38.4002 31.5302 37.8156 33.0028 36.7658 34.1164C35.7161 35.2299 34.2805 35.9002 32.7528 35.9902L32.4 35.9998H14.4C13.6776 35.9902 13.1952 35.515 13.1952 34.7878C13.1952 34.063 13.6752 33.5998 14.4 33.5998H33.0144C33.7601 33.5997 34.479 33.3218 35.0309 32.8205C35.5829 32.3191 35.9284 31.6301 36 30.8878L36.0144 30.5998V17.3854C36.0142 16.6397 35.7364 15.9208 35.235 15.3688C34.7336 14.8169 34.0446 14.4714 33.3024 14.3998L33.0144 14.3854H22.8864C22.08 14.3854 21.6 14.0542 21.6 13.195C21.6 12.3358 22.1352 11.9998 22.884 11.9998H32.4Z" fill="#0D1E32"/>
</svg>
