<svg width="48" height="48" viewBox="0 0 48 48" fill="none" xmlns="http://www.w3.org/2000/svg">
<path d="M22.885 23.5287C22.885 28.029 26.7157 28.7174 28.3474 28.7174C29.979 28.7174 34.1542 26.6128 33.6709 22.5646C33.1877 18.5164 30.7881 16.4243 27.7637 15.8091C24.7394 15.1939 17.4922 15.4495 17.4922 24.2234C17.4922 32.9972 26.1441 34.7937 27.7637 34.7937C29.3834 34.7937 35.4001 34.9635 38.5729 29.838C41.965 22.4365 40.412 17.4026 37.5105 12.9717C34.6089 8.54077 25.6734 6.34401 19.6222 8.11207C12.7733 10.1132 8.27564 15.4495 6.70642 24.2234C5.45104 31.2425 10.2279 37.9991 12.7733 40.5" stroke="#0D1E32" stroke-width="1.5" stroke-linecap="round"/>
</svg>
