<svg width="48" height="48" viewBox="0 0 48 48" fill="none" xmlns="http://www.w3.org/2000/svg">
<path d="M15 10.5C15 8.51088 15.7902 6.60322 17.1967 5.1967C18.6032 3.79018 20.5109 3 22.5 3C24.4891 3 26.3968 3.79018 27.8033 5.1967C29.2098 6.60322 30 8.51088 30 10.5V26.85C31.447 28.3268 32.4258 30.198 32.8136 32.2289C33.2015 34.2598 32.9811 36.36 32.1801 38.2661C31.3791 40.1722 30.0333 41.7995 28.3112 42.9438C26.5891 44.0881 24.5676 44.6985 22.5 44.6985C20.4324 44.6985 18.4109 44.0881 16.6888 42.9438C14.9668 41.7995 13.6209 40.1722 12.8199 38.2661C12.0189 36.36 11.7986 34.2598 12.1864 32.2289C12.5742 30.198 13.553 28.3268 15 26.85V10.5ZM22.5 6C21.3065 6 20.1619 6.47411 19.318 7.31802C18.4741 8.16193 18 9.30653 18 10.5V28.161L17.502 28.611C16.3697 29.6236 15.5716 30.9561 15.2132 32.4322C14.8549 33.9083 14.9531 35.4584 15.4951 36.8775C16.037 38.2965 16.9971 39.5175 18.2482 40.379C19.4993 41.2404 20.9825 41.7016 22.5015 41.7016C24.0205 41.7016 25.5037 41.2404 26.7548 40.379C28.0059 39.5175 28.966 38.2965 29.5079 36.8775C30.0499 35.4584 30.1482 33.9083 29.7898 32.4322C29.4314 30.9561 28.6333 29.6236 27.501 28.611L27 28.158V10.5C27 9.30653 26.5259 8.16193 25.682 7.31802C24.8381 6.47411 23.6935 6 22.5 6ZM24 18C24 17.6022 23.842 17.2206 23.5607 16.9393C23.2794 16.658 22.8978 16.5 22.5 16.5C22.1022 16.5 21.7206 16.658 21.4393 16.9393C21.158 17.2206 21 17.6022 21 18V30.255C19.9992 30.6088 19.1557 31.3051 18.6186 32.2207C18.0814 33.1363 17.8853 34.2124 18.0648 35.2586C18.2443 36.3048 18.7879 37.2539 19.5995 37.9382C20.4111 38.6224 21.4385 38.9976 22.5 38.9976C23.5615 38.9976 24.5889 38.6224 25.4005 37.9382C26.2121 37.2539 26.7557 36.3048 26.9352 35.2586C27.1147 34.2124 26.9186 33.1363 26.3815 32.2207C25.8443 31.3051 25.0008 30.6088 24 30.255V18Z" fill="#0D1E32"/>
</svg>
