<svg width="48" height="48" viewBox="0 0 48 48" fill="none" xmlns="http://www.w3.org/2000/svg">
<path d="M20.9999 6C18.4774 5.99928 15.9954 6.63472 13.7836 7.84753C11.5718 9.06033 9.70162 10.8113 8.34596 12.9386C6.99031 15.0658 6.193 17.5006 6.02781 20.0177C5.86261 22.5347 6.33486 25.0528 7.40086 27.339L6.02986 34.206C5.98169 34.448 5.99395 34.6981 6.06555 34.9342C6.13715 35.1703 6.26588 35.3851 6.44034 35.5595C6.61479 35.734 6.82958 35.8627 7.06568 35.9343C7.30178 36.0059 7.5519 36.0182 7.79386 35.97L14.6579 34.599C16.6928 35.5462 18.9144 36.0246 21.1589 35.999C23.4034 35.9734 25.6135 35.4444 27.6263 34.451C29.6391 33.4576 31.4034 32.0251 32.7889 30.2592C34.1745 28.4932 35.146 26.4388 35.632 24.2474C36.1179 22.0561 36.1059 19.7836 35.5967 17.5974C35.0876 15.4113 34.0943 13.3674 32.6901 11.6162C31.2859 9.86507 29.5066 8.45138 27.4833 7.47937C25.4601 6.50737 23.2445 6.00182 20.9999 6ZM8.99986 21C9.00053 18.3851 9.8553 15.842 11.4341 13.7576C13.013 11.6731 15.2295 10.1614 17.7464 9.45249C20.2634 8.74354 22.943 8.87613 25.3777 9.83009C27.8123 10.784 29.8688 12.5072 31.2341 14.7373C32.5995 16.9674 33.199 19.5825 32.9415 22.1846C32.6841 24.7868 31.5837 27.2337 29.8077 29.153C28.0318 31.0723 25.6775 32.359 23.1031 32.8173C20.5287 33.2756 17.8751 32.8805 15.5459 31.692C15.2444 31.5379 14.8998 31.4904 14.5679 31.557L9.41086 32.589L10.4429 27.429C10.5088 27.0981 10.4613 26.7546 10.3079 26.454C9.445 24.7656 8.99663 22.8961 8.99986 21ZM26.9999 42C23.5715 42.0057 20.2455 40.832 17.5799 38.676C19.8008 39.1038 22.0823 39.1109 24.3059 38.697C27.0557 39.328 29.9398 38.9723 32.4539 37.692C32.7553 37.5379 33.1 37.4904 33.4319 37.557L38.5889 38.589L37.5569 33.429C37.4909 33.0981 37.5385 32.7546 37.6919 32.454C38.9709 29.9396 39.3266 27.0559 38.6969 24.306C39.1094 22.0843 39.1023 19.805 38.6759 17.586C40.8308 20.2499 42.0044 23.5736 41.9999 27C41.9999 29.265 41.4959 31.413 40.5989 33.342L41.9699 40.206C42.018 40.448 42.0058 40.6981 41.9342 40.9342C41.8626 41.1703 41.7338 41.3851 41.5594 41.5595C41.3849 41.734 41.1701 41.8627 40.934 41.9343C40.6979 42.0059 40.4478 42.0182 40.2059 41.97L33.3389 40.599C31.4129 41.499 29.2619 42 26.9999 42Z" fill="#0D1E32"/>
</svg>
