<svg width="48" height="48" viewBox="0 0 48 48" fill="none" xmlns="http://www.w3.org/2000/svg">
<path d="M12.6001 9.6001C12.6001 10.3957 12.284 11.1588 11.7214 11.7214C11.1588 12.284 10.3957 12.6001 9.6001 12.6001C8.80445 12.6001 8.04139 12.284 7.47878 11.7214C6.91617 11.1588 6.6001 10.3957 6.6001 9.6001C6.6001 8.80445 6.91617 8.04139 7.47878 7.47878C8.04139 6.91617 8.80445 6.6001 9.6001 6.6001C10.3957 6.6001 11.1588 6.91617 11.7214 7.47878C12.284 8.04139 12.6001 8.80445 12.6001 9.6001ZM41.4001 38.4001C41.4001 39.1957 41.084 39.9588 40.5214 40.5214C39.9588 41.084 39.1957 41.4001 38.4001 41.4001C37.6045 41.4001 36.8414 41.084 36.2788 40.5214C35.7162 39.9588 35.4001 39.1957 35.4001 38.4001C35.4001 37.6045 35.7162 36.8414 36.2788 36.2788C36.8414 35.7162 37.6045 35.4001 38.4001 35.4001C39.1957 35.4001 39.9588 35.7162 40.5214 36.2788C41.084 36.8414 41.4001 37.6045 41.4001 38.4001ZM38.4001 27.0001C39.1957 27.0001 39.9588 26.684 40.5214 26.1214C41.084 25.5588 41.4001 24.7957 41.4001 24.0001C41.4001 23.2044 41.084 22.4414 40.5214 21.8788C39.9588 21.3162 39.1957 21.0001 38.4001 21.0001C37.6045 21.0001 36.8414 21.3162 36.2788 21.8788C35.7162 22.4414 35.4001 23.2044 35.4001 24.0001C35.4001 24.7957 35.7162 25.5588 36.2788 26.1214C36.8414 26.684 37.6045 27.0001 38.4001 27.0001ZM41.4001 9.6001C41.4001 10.3957 41.084 11.1588 40.5214 11.7214C39.9588 12.284 39.1957 12.6001 38.4001 12.6001C37.6045 12.6001 36.8414 12.284 36.2788 11.7214C35.7162 11.1588 35.4001 10.3957 35.4001 9.6001C35.4001 8.80445 35.7162 8.04139 36.2788 7.47878C36.8414 6.91617 37.6045 6.6001 38.4001 6.6001C39.1957 6.6001 39.9588 6.91617 40.5214 7.47878C41.084 8.04139 41.4001 8.80445 41.4001 9.6001ZM24.0001 41.4001C24.7957 41.4001 25.5588 41.084 26.1214 40.5214C26.684 39.9588 27.0001 39.1957 27.0001 38.4001C27.0001 37.6045 26.684 36.8414 26.1214 36.2788C25.5588 35.7162 24.7957 35.4001 24.0001 35.4001C23.2044 35.4001 22.4414 35.7162 21.8788 36.2788C21.3162 36.8414 21.0001 37.6045 21.0001 38.4001C21.0001 39.1957 21.3162 39.9588 21.8788 40.5214C22.4414 41.084 23.2044 41.4001 24.0001 41.4001ZM27.0001 24.0001C27.0001 24.7957 26.684 25.5588 26.1214 26.1214C25.5588 26.684 24.7957 27.0001 24.0001 27.0001C23.2044 27.0001 22.4414 26.684 21.8788 26.1214C21.3162 25.5588 21.0001 24.7957 21.0001 24.0001C21.0001 23.2044 21.3162 22.4414 21.8788 21.8788C22.4414 21.3162 23.2044 21.0001 24.0001 21.0001C24.7957 21.0001 25.5588 21.3162 26.1214 21.8788C26.684 22.4414 27.0001 23.2044 27.0001 24.0001ZM24.0001 12.6001C24.7957 12.6001 25.5588 12.284 26.1214 11.7214C26.684 11.1588 27.0001 10.3957 27.0001 9.6001C27.0001 8.80445 26.684 8.04139 26.1214 7.47878C25.5588 6.91617 24.7957 6.6001 24.0001 6.6001C23.2044 6.6001 22.4414 6.91617 21.8788 7.47878C21.3162 8.04139 21.0001 8.80445 21.0001 9.6001C21.0001 10.3957 21.3162 11.1588 21.8788 11.7214C22.4414 12.284 23.2044 12.6001 24.0001 12.6001ZM12.6001 38.4001C12.6001 39.1957 12.284 39.9588 11.7214 40.5214C11.1588 41.084 10.3957 41.4001 9.6001 41.4001C8.80445 41.4001 8.04139 41.084 7.47878 40.5214C6.91617 39.9588 6.6001 39.1957 6.6001 38.4001C6.6001 37.6045 6.91617 36.8414 7.47878 36.2788C8.04139 35.7162 8.80445 35.4001 9.6001 35.4001C10.3957 35.4001 11.1588 35.7162 11.7214 36.2788C12.284 36.8414 12.6001 37.6045 12.6001 38.4001ZM9.6001 27.0001C10.3957 27.0001 11.1588 26.684 11.7214 26.1214C12.284 25.5588 12.6001 24.7957 12.6001 24.0001C12.6001 23.2044 12.284 22.4414 11.7214 21.8788C11.1588 21.3162 10.3957 21.0001 9.6001 21.0001C8.80445 21.0001 8.04139 21.3162 7.47878 21.8788C6.91617 22.4414 6.6001 23.2044 6.6001 24.0001C6.6001 24.7957 6.91617 25.5588 7.47878 26.1214C8.04139 26.684 8.80445 27.0001 9.6001 27.0001Z" fill="#0D1E32"/>
<path d="M18.7586 17.3793C18.7586 17.7451 18.6133 18.096 18.3546 18.3546C18.096 18.6133 17.7451 18.7586 17.3793 18.7586C17.0135 18.7586 16.6627 18.6133 16.404 18.3546C16.1453 18.096 16 17.7451 16 17.3793C16 17.0135 16.1453 16.6627 16.404 16.404C16.6627 16.1453 17.0135 16 17.3793 16C17.7451 16 18.096 16.1453 18.3546 16.404C18.6133 16.6627 18.7586 17.0135 18.7586 17.3793ZM32 30.6207C32 30.9865 31.8547 31.3373 31.596 31.596C31.3373 31.8547 30.9865 32 30.6207 32C30.2549 32 29.904 31.8547 29.6454 31.596C29.3867 31.3373 29.2414 30.9865 29.2414 30.6207C29.2414 30.2549 29.3867 29.904 29.6454 29.6454C29.904 29.3867 30.2549 29.2414 30.6207 29.2414C30.9865 29.2414 31.3373 29.3867 31.596 29.6454C31.8547 29.904 32 30.2549 32 30.6207ZM30.6207 25.3793C30.9865 25.3793 31.3373 25.234 31.596 24.9753C31.8547 24.7166 32 24.3658 32 24C32 23.6342 31.8547 23.2834 31.596 23.0247C31.3373 22.766 30.9865 22.6207 30.6207 22.6207C30.2549 22.6207 29.904 22.766 29.6454 23.0247C29.3867 23.2834 29.2414 23.6342 29.2414 24C29.2414 24.3658 29.3867 24.7166 29.6454 24.9753C29.904 25.234 30.2549 25.3793 30.6207 25.3793ZM32 17.3793C32 17.7451 31.8547 18.096 31.596 18.3546C31.3373 18.6133 30.9865 18.7586 30.6207 18.7586C30.2549 18.7586 29.904 18.6133 29.6454 18.3546C29.3867 18.096 29.2414 17.7451 29.2414 17.3793C29.2414 17.0135 29.3867 16.6627 29.6454 16.404C29.904 16.1453 30.2549 16 30.6207 16C30.9865 16 31.3373 16.1453 31.596 16.404C31.8547 16.6627 32 17.0135 32 17.3793ZM24 32C24.3658 32 24.7166 31.8547 24.9753 31.596C25.234 31.3373 25.3793 30.9865 25.3793 30.6207C25.3793 30.2549 25.234 29.904 24.9753 29.6454C24.7166 29.3867 24.3658 29.2414 24 29.2414C23.6342 29.2414 23.2834 29.3867 23.0247 29.6454C22.766 29.904 22.6207 30.2549 22.6207 30.6207C22.6207 30.9865 22.766 31.3373 23.0247 31.596C23.2834 31.8547 23.6342 32 24 32ZM25.3793 24C25.3793 24.3658 25.234 24.7166 24.9753 24.9753C24.7166 25.234 24.3658 25.3793 24 25.3793C23.6342 25.3793 23.2834 25.234 23.0247 24.9753C22.766 24.7166 22.6207 24.3658 22.6207 24C22.6207 23.6342 22.766 23.2834 23.0247 23.0247C23.2834 22.766 23.6342 22.6207 24 22.6207C24.3658 22.6207 24.7166 22.766 24.9753 23.0247C25.234 23.2834 25.3793 23.6342 25.3793 24ZM24 18.7586C24.3658 18.7586 24.7166 18.6133 24.9753 18.3546C25.234 18.096 25.3793 17.7451 25.3793 17.3793C25.3793 17.0135 25.234 16.6627 24.9753 16.404C24.7166 16.1453 24.3658 16 24 16C23.6342 16 23.2834 16.1453 23.0247 16.404C22.766 16.6627 22.6207 17.0135 22.6207 17.3793C22.6207 17.7451 22.766 18.096 23.0247 18.3546C23.2834 18.6133 23.6342 18.7586 24 18.7586ZM18.7586 30.6207C18.7586 30.9865 18.6133 31.3373 18.3546 31.596C18.096 31.8547 17.7451 32 17.3793 32C17.0135 32 16.6627 31.8547 16.404 31.596C16.1453 31.3373 16 30.9865 16 30.6207C16 30.2549 16.1453 29.904 16.404 29.6454C16.6627 29.3867 17.0135 29.2414 17.3793 29.2414C17.7451 29.2414 18.096 29.3867 18.3546 29.6454C18.6133 29.904 18.7586 30.2549 18.7586 30.6207ZM17.3793 25.3793C17.7451 25.3793 18.096 25.234 18.3546 24.9753C18.6133 24.7166 18.7586 24.3658 18.7586 24C18.7586 23.6342 18.6133 23.2834 18.3546 23.0247C18.096 22.766 17.7451 22.6207 17.3793 22.6207C17.0135 22.6207 16.6627 22.766 16.404 23.0247C16.1453 23.2834 16 23.6342 16 24C16 24.3658 16.1453 24.7166 16.404 24.9753C16.6627 25.234 17.0135 25.3793 17.3793 25.3793Z" fill="#0D1E32"/>
</svg>
