<svg width="48" height="48" viewBox="0 0 48 48" fill="none" xmlns="http://www.w3.org/2000/svg">
<path d="M43.2066 32.4847C44.3905 29.8125 45.0014 26.922 45 23.9993C45 12.3989 35.5941 3 23.9993 3C12.3982 3 3 12.4059 3 23.9993C3 27.0198 3.6447 29.8884 4.792 32.4833C4.61443 32.7483 4.46964 33.0339 4.3608 33.3338C4.18918 33.8239 4.1191 34.3438 4.15484 34.8619C4.19058 35.38 4.33139 35.8854 4.5687 36.3473C5.0643 37.3224 5.9246 38.0504 7.0075 38.4095C6.72897 39.5934 6.88083 40.8378 7.4359 41.92C8.1226 43.2731 9.3343 44.2727 10.8477 44.7354C11.4231 44.9104 12.0188 45 12.6187 45C14.0247 45.0035 15.386 44.5065 16.4589 43.5979C18.8646 44.5257 21.4209 45.001 23.9993 45C26.5775 45.0007 29.1336 44.5252 31.539 43.5972C32.6118 44.506 33.9731 45.0033 35.3792 45C35.9792 44.9996 36.5758 44.9102 37.1495 44.7347C38.6615 44.2727 39.8746 43.2724 40.562 41.9193C41.1176 40.8375 41.2697 39.5932 40.9911 38.4095C42.0684 38.0525 42.9308 37.3238 43.4271 36.3473C43.6649 35.8854 43.806 35.3799 43.8417 34.8616C43.8775 34.3433 43.8071 33.8232 43.635 33.3331C43.5271 33.034 43.3832 32.7491 43.2066 32.4847ZM4.75 23.9993C4.75 13.3852 13.3852 4.75 23.9993 4.75C34.6134 4.75 43.25 13.3852 43.25 23.9993C43.25 26.5396 42.7467 28.9623 41.8486 31.1848C41.3147 30.8644 40.7192 30.6602 40.1011 30.5855C39.4829 30.5107 38.856 30.567 38.2611 30.7508C37.2902 31.0469 36.4866 31.6405 35.9574 32.4434C34.6288 32.0227 33.3254 30.9265 32.1445 29.5797C32.3986 29.4131 32.5071 28.9973 32.2635 28.6004C31.5796 27.4867 30.5681 26.4353 29.306 25.6219C27.9249 23.3511 27.045 21.3939 27.024 21.3491L25.9838 19.009L26.0195 21.5696C26.0223 21.6907 26.0426 22.7589 26.219 24.3115C25.4912 24.1422 24.7465 24.0565 23.9993 24.056C23.2223 24.056 22.4817 24.1498 21.7803 24.3115C21.9567 22.7596 21.977 21.6907 21.9784 21.5696L22.0148 19.0069L20.9739 21.3491C20.2949 22.8151 19.5338 24.2417 18.694 25.6219C17.4312 26.4346 16.4197 27.4867 15.7358 28.6004C15.4922 28.9973 15.6007 29.4131 15.8555 29.5797C14.6732 30.9272 13.3712 32.0241 12.0412 32.4441C11.5113 31.6412 10.7077 31.0469 9.7396 30.7515C9.14451 30.5681 8.51752 30.5117 7.89926 30.5861C7.28101 30.6605 6.68528 30.864 6.1507 31.1834C5.22587 28.9011 4.75027 26.4618 4.75 23.9993ZM17.1631 40.7867L16.9503 41.262C16.2195 42.8944 14.5192 43.95 12.6187 43.95C12.1224 43.95 11.6289 43.8761 11.1543 43.7309C9.9167 43.3522 8.929 42.5402 8.3725 41.4433C8.12331 40.9563 7.97424 40.4242 7.93409 39.8786C7.89393 39.3331 7.9635 38.7849 8.1387 38.2667L8.2556 37.6136L7.7628 37.5198C7.64533 37.4976 7.529 37.4698 7.4142 37.4365C6.5644 37.1775 5.8861 36.621 5.5046 35.8706C5.33168 35.5346 5.22897 35.167 5.20274 34.7901C5.1765 34.4132 5.22729 34.0348 5.352 33.6782C5.7846 32.4371 7.0187 31.6027 8.4229 31.6027C8.7645 31.6027 9.1047 31.6538 9.433 31.7546C10.2709 32.0101 10.9436 32.5568 11.3251 33.2939L11.5106 33.6523L11.904 33.5655C15.6168 32.7479 18.9971 27.4097 20.7268 24.1981C20.395 27.052 19.5256 31.6013 17.2548 34.6813L16.2391 36.0596L17.8526 35.4884C18.5479 35.2438 19.3033 35.2286 20.0079 35.445C20.8563 35.7026 21.5346 36.2591 21.9161 37.0102C22.2668 37.699 22.3207 38.4781 22.0687 39.2026C21.6375 40.443 20.4055 41.2767 19.0027 41.2767C18.6604 41.2767 18.3195 41.2256 17.9842 41.1227C17.8671 41.0876 17.7526 41.0448 17.6412 40.9946L17.1631 40.7867ZM23.9993 43.25C21.7789 43.25 19.6488 42.8643 17.6622 42.1692C17.6706 42.1559 17.6797 42.144 17.6874 42.1307C18.1144 42.2616 18.5568 42.3267 19.002 42.3267C20.8507 42.3267 22.4817 41.2095 23.0599 39.5477C23.232 39.0576 23.3023 38.5377 23.2666 38.0195C23.2308 37.5014 23.0898 36.9959 22.852 36.5342C22.3396 35.5262 21.4373 34.7821 20.3145 34.4405C19.825 34.2911 19.3138 34.2255 18.8025 34.2466C20.08 32.1123 20.8423 29.5874 21.2994 27.3516C23.0751 26.9361 24.9228 26.9361 26.6985 27.3516C27.1549 29.5867 27.9165 32.1123 29.1947 34.2466C28.6839 34.2263 28.1733 34.2916 27.6841 34.4398C26.5592 34.7814 25.6576 35.5255 25.1466 36.5328C24.909 36.9947 24.768 37.5002 24.7323 38.0185C24.6965 38.5367 24.7668 39.0568 24.9387 39.547C25.5169 41.2095 27.1465 42.3267 28.9952 42.3267C29.4425 42.3267 29.8863 42.2602 30.3091 42.1307C30.3175 42.1447 30.3266 42.1559 30.335 42.1699C28.2991 42.8845 26.157 43.2497 23.9993 43.25ZM42.4926 35.8713C42.1111 36.6217 41.4328 37.1782 40.5907 37.4351C40.4717 37.4687 40.3555 37.4981 40.2351 37.5212L39.7444 37.6157L39.8158 38.1106L39.8606 38.2681C40.0365 38.786 40.1063 39.3341 40.0659 39.8796C40.0255 40.4251 39.8757 40.9569 39.6254 41.4433C39.0675 42.5402 38.0805 43.3529 36.8429 43.7309C36.3683 43.876 35.8748 43.9498 35.3785 43.95C33.478 43.9493 31.777 42.8944 31.0462 41.262L30.8327 40.7867L30.3567 40.9953C29.9266 41.1806 29.4634 41.2765 28.9952 41.2774C27.5938 41.2774 26.3618 40.4444 25.9299 39.2026C25.8049 38.8459 25.7539 38.4675 25.78 38.0904C25.8061 37.7133 25.9088 37.3455 26.0818 37.0095C26.4633 36.2591 27.1416 35.7033 27.9907 35.445C28.6947 35.2293 29.4493 35.2447 30.1439 35.4891L31.7588 36.0603L30.7431 34.682C28.4709 31.602 27.6029 27.052 27.2718 24.1974C29.0015 27.4083 32.3825 32.7486 36.0946 33.5662L36.4887 33.653L36.6749 33.2939C37.055 32.5575 37.7277 32.0108 38.5684 31.7546C38.8953 31.6545 39.2352 31.6036 39.5771 31.6034C40.9799 31.6034 42.2133 32.4371 42.6452 33.6782C42.7696 34.035 42.8202 34.4134 42.794 34.7904C42.7677 35.1674 42.6652 35.5351 42.4926 35.8713Z" fill="#0D1E32"/>
</svg>
