<svg width="48" height="48" viewBox="0 0 48 48" fill="none" xmlns="http://www.w3.org/2000/svg">
<path d="M22.7998 5.9998V8.3998C22.7998 8.71806 22.9262 9.02329 23.1513 9.24833C23.3763 9.47338 23.6815 9.5998 23.9998 9.5998C24.3181 9.5998 24.6233 9.47338 24.8483 9.24833C25.0734 9.02329 25.1998 8.71806 25.1998 8.3998V5.9998C25.1998 5.68154 25.0734 5.37632 24.8483 5.15128C24.6233 4.92623 24.3181 4.7998 23.9998 4.7998C23.6815 4.7998 23.3763 4.92623 23.1513 5.15128C22.9262 5.37632 22.7998 5.68154 22.7998 5.9998Z" fill="#0D1E32"/>
<path d="M23.9998 12C22.0902 12 20.2589 12.7586 18.9086 14.1088C17.5584 15.4591 16.7998 17.2904 16.7998 19.2C16.7998 21.1096 17.5584 22.9409 18.9086 24.2912C20.2589 25.6414 22.0902 26.4 23.9998 26.4C25.9094 26.4 27.7407 25.6414 29.091 24.2912C30.4412 22.9409 31.1998 21.1096 31.1998 19.2C31.1998 17.2904 30.4412 15.4591 29.091 14.1088C27.7407 12.7586 25.9094 12 23.9998 12ZM19.1998 19.2C19.1998 17.927 19.7055 16.7061 20.6057 15.8059C21.5059 14.9057 22.7268 14.4 23.9998 14.4C25.2728 14.4 26.4937 14.9057 27.3939 15.8059C28.2941 16.7061 28.7998 17.927 28.7998 19.2C28.7998 20.473 28.2941 21.6939 27.3939 22.5941C26.4937 23.4943 25.2728 24 23.9998 24C22.7268 24 21.5059 23.4943 20.6057 22.5941C19.7055 21.6939 19.1998 20.473 19.1998 19.2Z" fill="#0D1E32"/>
<path d="M14.7215 39.4968C17.757 38.749 20.8736 38.3806 23.9999 38.4C28.0055 38.4 31.3079 38.9496 33.9119 39.6648C36.4079 40.3488 38.2679 41.1864 39.4895 41.844C40.0695 42.1543 40.6305 42.4989 41.1695 42.876L41.2415 42.9288L41.2511 42.9384C41.4999 43.137 41.8175 43.2286 42.1339 43.193C42.4503 43.1575 42.7397 42.9977 42.9383 42.7488C43.1369 42.4999 43.2285 42.1823 43.1929 41.8659C43.1573 41.5495 42.9975 41.2602 42.7487 41.0616L42.7439 41.0568L42.7319 41.0496L42.7007 41.0256L42.5879 40.9416C41.9586 40.4982 41.303 40.0934 40.6247 39.7296C38.6944 38.7115 36.656 37.9129 34.5479 37.3488C31.7447 36.5808 28.2263 36 23.9999 36C20.1095 36 16.8191 36.492 14.1335 37.1712C11.8489 37.7309 9.63846 38.5582 7.54786 39.636C6.97004 39.938 6.40773 40.2688 5.86306 40.6272C5.67284 40.7529 5.48636 40.8841 5.30386 41.0208L5.26786 41.0496L5.25826 41.0568L5.25346 41.0616H5.25106C5.00218 41.2602 4.84239 41.5495 4.80683 41.8659C4.77127 42.1823 4.86287 42.4999 5.06146 42.7488C5.26005 42.9977 5.54938 43.1575 5.86579 43.193C6.1822 43.2286 6.49978 43.137 6.74866 42.9384L6.76306 42.9264L6.83986 42.8688C7.42414 42.4615 8.03333 42.0912 8.66386 41.76C10.5869 40.7698 12.6202 40.0101 14.7215 39.4968Z" fill="#0D1E32"/>
<path d="M22.7998 32.3998V29.9998C22.7998 29.6815 22.9262 29.3763 23.1513 29.1513C23.3763 28.9262 23.6815 28.7998 23.9998 28.7998C24.3181 28.7998 24.6233 28.9262 24.8483 29.1513C25.0734 29.3763 25.1998 29.6815 25.1998 29.9998V32.3998C25.1998 32.7181 25.0734 33.0233 24.8483 33.2483C24.6233 33.4734 24.3181 33.5998 23.9998 33.5998C23.6815 33.5998 23.3763 33.4734 23.1513 33.2483C22.9262 33.0233 22.7998 32.7181 22.7998 32.3998Z" fill="#0D1E32"/>
<path d="M9.6001 20.3997C9.6001 20.0814 9.72653 19.7762 9.95157 19.5512C10.1766 19.3261 10.4818 19.1997 10.8001 19.1997H13.2001C13.5184 19.1997 13.8236 19.3261 14.0486 19.5512C14.2737 19.7762 14.4001 20.0814 14.4001 20.3997C14.4001 20.718 14.2737 21.0232 14.0486 21.2482C13.8236 21.4733 13.5184 21.5997 13.2001 21.5997H10.8001C10.4818 21.5997 10.1766 21.4733 9.95157 21.2482C9.72653 21.0232 9.6001 20.718 9.6001 20.3997Z" fill="#0D1E32"/>
<path d="M34.8001 21.5997H37.2001C37.5184 21.5997 37.8236 21.4733 38.0486 21.2482C38.2737 21.0232 38.4001 20.718 38.4001 20.3997C38.4001 20.0814 38.2737 19.7762 38.0486 19.5512C37.8236 19.3261 37.5184 19.1997 37.2001 19.1997H34.8001C34.4818 19.1997 34.1766 19.3261 33.9516 19.5512C33.7265 19.7762 33.6001 20.0814 33.6001 20.3997C33.6001 20.718 33.7265 21.0232 33.9516 21.2482C34.1766 21.4733 34.4818 21.5997 34.8001 21.5997Z" fill="#0D1E32"/>
<path d="M16.4493 14.0492C16.3378 14.1609 16.2054 14.2496 16.0596 14.3101C15.9138 14.3706 15.7575 14.4017 15.5997 14.4017C15.4418 14.4017 15.2856 14.3706 15.1398 14.3101C14.994 14.2496 14.8616 14.1609 14.7501 14.0492L12.3501 11.6492C12.2387 11.5376 12.1503 11.4052 12.0901 11.2595C12.0299 11.1137 11.9989 10.9576 11.999 10.7999C11.9991 10.6422 12.0303 10.4861 12.0907 10.3405C12.1512 10.1949 12.2397 10.0626 12.3513 9.95117C12.4629 9.83975 12.5953 9.75141 12.741 9.69117C12.8867 9.63093 13.0429 9.59999 13.2005 9.6001C13.3582 9.60021 13.5143 9.63138 13.66 9.69182C13.8056 9.75226 13.9379 9.84079 14.0493 9.95237L16.4493 12.3524C16.6743 12.5774 16.8006 12.8826 16.8006 13.2008C16.8006 13.519 16.6743 13.8241 16.4493 14.0492Z" fill="#0D1E32"/>
<path d="M14.7501 26.7504C14.8617 26.6388 14.9941 26.5503 15.1399 26.4899C15.2857 26.4295 15.4419 26.3984 15.5997 26.3984C15.7575 26.3984 15.9137 26.4295 16.0595 26.4899C16.2053 26.5503 16.3377 26.6388 16.4493 26.7504C16.5609 26.8619 16.6494 26.9944 16.7097 27.1402C16.7701 27.2859 16.8012 27.4422 16.8012 27.6C16.8012 27.7577 16.7701 27.914 16.7097 28.0598C16.6494 28.2055 16.5609 28.338 16.4493 28.4496L14.0493 30.8496C13.8243 31.0749 13.519 31.2016 13.2005 31.2018C12.8821 31.202 12.5766 31.0758 12.3513 30.8508C12.126 30.6257 11.9992 30.3204 11.999 30.002C11.9988 29.6836 12.1251 29.3781 12.3501 29.1528L14.7501 26.7528V26.7504Z" fill="#0D1E32"/>
<path d="M31.5503 14.0493C31.6618 14.161 31.7942 14.2497 31.94 14.3102C32.0858 14.3707 32.2421 14.4018 32.3999 14.4018C32.5577 14.4018 32.714 14.3707 32.8598 14.3102C33.0056 14.2497 33.138 14.161 33.2495 14.0493L35.6495 11.6493C35.8748 11.4239 36.0014 11.1183 36.0014 10.7997C36.0014 10.481 35.8748 10.1754 35.6495 9.95006C35.4242 9.72473 35.1186 9.59814 34.7999 9.59814C34.4812 9.59814 34.1756 9.72473 33.9503 9.95006L31.5503 12.3501C31.4385 12.4615 31.3499 12.594 31.2894 12.7397C31.2289 12.8855 31.1978 13.0418 31.1978 13.1997C31.1978 13.3575 31.2289 13.5138 31.2894 13.6596C31.3499 13.8054 31.4385 13.9378 31.5503 14.0493Z" fill="#0D1E32"/>
<path d="M33.2495 26.7527C33.0245 26.5273 32.7192 26.4006 32.4007 26.4004C32.0823 26.4002 31.7768 26.5264 31.5515 26.7515C31.3262 26.9765 31.1994 27.2818 31.1992 27.6002C31.199 27.9186 31.3253 28.2241 31.5503 28.4495L33.9503 30.8495C34.1753 31.0748 34.4806 31.2015 34.799 31.2017C35.1175 31.202 35.423 31.0757 35.6483 30.8507C35.8736 30.6256 36.0003 30.3203 36.0006 30.0019C36.0008 29.6835 35.8745 29.378 35.6495 29.1527L33.2495 26.7527Z" fill="#0D1E32"/>
</svg>
