<svg width="48" height="49" viewBox="0 0 48 49" fill="none" xmlns="http://www.w3.org/2000/svg">
<path d="M16 12.6455H12V16.6455H16V12.6455Z" fill="#0D1E32"/>
<path d="M6 11.1451C6 9.95134 6.47411 8.80648 7.31802 7.96237C8.16193 7.11826 9.30653 6.64404 10.5 6.64404H17.5C18.6935 6.64404 19.8381 7.11826 20.682 7.96237C21.5259 8.80648 22 9.95134 22 11.1451V18.1467C22 19.3405 21.5259 20.4853 20.682 21.3295C19.8381 22.1736 18.6935 22.6478 17.5 22.6478H10.5C9.30653 22.6478 8.16193 22.1736 7.31802 21.3295C6.47411 20.4853 6 19.3405 6 18.1467V11.1451ZM10.5 9.64475C10.1022 9.64475 9.72064 9.80282 9.43934 10.0842C9.15804 10.3656 9 10.7472 9 11.1451V18.1467C9 18.9749 9.672 19.6471 10.5 19.6471H17.5C17.8978 19.6471 18.2794 19.489 18.5607 19.2076C18.842 18.9263 19 18.5447 19 18.1467V11.1451C19 10.7472 18.842 10.3656 18.5607 10.0842C18.2794 9.80282 17.8978 9.64475 17.5 9.64475H10.5Z" fill="#0D1E32"/>
<path d="M12 32.6499H16V36.6499H12V32.6499Z" fill="#0D1E32"/>
<path d="M6 31.15C6 29.9562 6.47411 28.8114 7.31802 27.9673C8.16193 27.1231 9.30653 26.6489 10.5 26.6489H17.5C18.6935 26.6489 19.8381 27.1231 20.682 27.9673C21.5259 28.8114 22 29.9562 22 31.15V38.1516C22 39.3454 21.5259 40.4902 20.682 41.3343C19.8381 42.1785 18.6935 42.6527 17.5 42.6527H10.5C9.30653 42.6527 8.16193 42.1785 7.31802 41.3343C6.47411 40.4902 6 39.3454 6 38.1516V31.15ZM10.5 29.6496C10.1022 29.6496 9.72064 29.8077 9.43934 30.0891C9.15804 30.3704 9 30.7521 9 31.15V38.1516C9 38.9798 9.672 39.652 10.5 39.652H17.5C17.8978 39.652 18.2794 39.4939 18.5607 39.2125C18.842 38.9312 19 38.5495 19 38.1516V31.15C19 30.7521 18.842 30.3704 18.5607 30.0891C18.2794 29.8077 17.8978 29.6496 17.5 29.6496H10.5Z" fill="#0D1E32"/>
<path d="M36 12.6455H32V16.6455H36V12.6455Z" fill="#0D1E32"/>
<path d="M30.5 6.64404C29.3065 6.64404 28.1619 7.11826 27.318 7.96237C26.4741 8.80648 26 9.95134 26 11.1451V18.1467C26 19.3405 26.4741 20.4853 27.318 21.3295C28.1619 22.1736 29.3065 22.6478 30.5 22.6478H37.5C38.6935 22.6478 39.8381 22.1736 40.682 21.3295C41.5259 20.4853 42 19.3405 42 18.1467V11.1451C42 9.95134 41.5259 8.80648 40.682 7.96237C39.8381 7.11826 38.6935 6.64404 37.5 6.64404H30.5ZM29 11.1451C29 10.7472 29.158 10.3656 29.4393 10.0842C29.7206 9.80282 30.1022 9.64475 30.5 9.64475H37.5C37.8978 9.64475 38.2794 9.80282 38.5607 10.0842C38.842 10.3656 39 10.7472 39 11.1451V18.1467C39 18.5447 38.842 18.9263 38.5607 19.2076C38.2794 19.489 37.8978 19.6471 37.5 19.6471H30.5C30.1022 19.6471 29.7206 19.489 29.4393 19.2076C29.158 18.9263 29 18.5447 29 18.1467V11.1451Z" fill="#0D1E32"/>
<path d="M26 26.6489H31.5V32.1502H26V26.6489Z" fill="#0D1E32"/>
<path d="M36.5 32.1499H31.5V37.1511H26V42.6524H31.5V37.1511H36.5V42.6524H42V37.1511H36.5V32.1499Z" fill="#0D1E32"/>
<path d="M36.5 32.1502V26.6489H42V32.1502H36.5Z" fill="#0D1E32"/>
</svg>
